# xmcd CD database file
#
# Track frame offsets:
#	150
#	20482
#	32929
#	44876
#	61346
#	81455
#	111330
#	131550
#	171178
#	190129
#	213872
#	232749
#	246343
#	265318
#	277150
#
# Disc length: 3974 seconds
#
# Revision: 0
# Processed by: cddbd v1.5.2PL0 Copyright (c) Steve Scherf et al.
# Submitted via: CDex 1.51
#
DISCID=e30f840f
DTITLE=HOBO - Lassú Vonat(Bob Dylan Dalok)
DYEAR=2018
DGENRE=Blues
TTITLE0=Várok Rád Reggel(Meet Me In The Morning)
TTITLE1=Magányos Hobó Vagyok(I Am A Lonesome Hobo)
TTITLE2=Végig Az Õrtorony Mellett(All Along The Watchtower
TTITLE3=Egy Sovány Ember Balladája(Ballad Of A Thin Man)
TTITLE4=Egy Kerék Lángol(This Wheel's On Fire)
TTITLE5=A Szabadság Harangjai(The Chimes Of Freedom)
TTITLE6=Nagybetûs Blues(Call Letter Blues)
TTITLE7=A Pusztítás Során(Desolation Row)
TTITLE8=A Választ A Szél Súgja(Blowin' In The Wind
TTITLE9=Mint Egy Rolling Stone(Like A Rolling Stone)
TTITLE10=Mindennek Vége, Baby Blue(It's All Over Now, Baby Blue)
TTITLE11=Az Idõk Változnak(The Times Are A-Changin')
TTITLE12=Minden Homokszem(Ev'ry Grain Of Sand)
TTITLE13=Csak Egy Hobó(Only A Hobo)
TTITLE14=Lassú Vonat(Slow Train Comin')
EXTD=YEAR: 2018
EXTT0=
EXTT1=
EXTT2=
EXTT3=
EXTT4=
EXTT5=
EXTT6=
EXTT7=
EXTT8=
EXTT9=
EXTT10=
EXTT11=
EXTT12=
EXTT13=
EXTT14=
PLAYORDER=
